<?xml version="1.0" standalone="no"?><svg xmlns="http://www.w3.org/2000/svg" viewBox="0 0 1440 320"><path fill="#0099ff" fill-opacity="1" d="M0,224L20,218.7C40,213,80,203,120,208C160,213,200,235,240,240C280,245,320,235,360,245.3C400,256,440,288,480,261.3C520,235,560,149,600,122.7C640,96,680,128,720,149.3C760,171,800,181,840,176C880,171,920,149,960,117.3C1000,85,1040,43,1080,26.7C1120,11,1160,21,1200,58.7C1240,96,1280,160,1320,165.3C1360,171,1400,117,1420,90.7L1440,64L1440,320L1420,320C1400,320,1360,320,1320,320C1280,320,1240,320,1200,320C1160,320,1120,320,1080,320C1040,320,1000,320,960,320C920,320,880,320,840,320C800,320,760,320,720,320C680,320,640,320,600,320C560,320,520,320,480,320C440,320,400,320,360,320C320,320,280,320,240,320C200,320,160,320,120,320C80,320,40,320,20,320L0,320Z"></path></svg>